<svg xmlns="http://www.w3.org/2000/svg" xml:space="preserve" style="enable-background:new 0 0 24 24" viewBox="0 0 24 24" id="account">
  <g id="Layer_2">
    <g>
      <path d="M22,12c0,3.359985-1.669983,6.469971-4.460022,8.309998C15.900024,21.419983,13.97998,22,12,22
			s-3.900024-0.580017-5.549988-1.690002C3.669983,18.469971,2,15.359985,2,12C2,6.48999,6.48999,2,12,2S22,6.48999,22,12z" style="fill:#d1e7fd"></path>
    </g>
    <g>
      <path d="M7.669983 10.289978C7.669983 7.929993 9.609985 6 12 6s4.330017 1.929993 4.330017 4.289978c0 2.369995-1.940002 4.299988-4.330017 4.299988S7.669983 12.659973 7.669983 10.289978zM17.549988 20.309998C15.900024 21.419983 13.97998 22 12 22s-3.900024-.580017-5.549988-1.690002c-.27002-.190002-.440002-.5-.440002-.830017 0-.159973.029968-.309998.080017-.47998l.049988-.200012c.390015-1.47998 1.47998-2.659973 2.909973-3.200012 1.820007-.700012 3.98999-.719971 5.850037-.01001.069946.02002.139954.050049.22998.090027 1.339966.559998 2.349976 1.719971 2.719971 3.089966l.070007.280029c.01001.029968.030029.130005.040039.150024C18.030029 19.599976 17.880005 20.089966 17.549988 20.309998z" style="fill:#81caff"></path>
    </g>
  </g>
</svg>
